<mxfile host="www.draw.io" modified="2019-12-02T17:16:53.587Z" agent="Mozilla/5.0 (Macintosh; Intel Mac OS X 10_15_1) AppleWebKit/537.36 (KHTML, like Gecko) Chrome/78.0.3904.108 Safari/537.36" etag="aYaN42UFTAqqu1YDO9gq" version="12.3.4" type="github" pages="1">
  <diagram id="L9lqavDQZu4B61CL-ZXD" name="Page-1">
    <mxGraphModel dx="641" dy="359" grid="1" gridSize="10" guides="1" tooltips="1" connect="1" arrows="1" fold="1" page="1" pageScale="1" pageWidth="1920" pageHeight="1200" math="0" shadow="0">
      <root>
        <mxCell id="0"/>
        <mxCell id="1" parent="0"/>
      </root>
    </mxGraphModel>
  </diagram>
</mxfile>
